<svg xmlns="http://www.w3.org/2000/svg" width="21" height="20" viewBox="0 0 21 20" fill="#a7a6a6" focusable="false"
    class="lazy-loaded" aria-busy="false">
    <path
        d="M12.3446 11.8441C12.718 11.4706 13.2378 11.2385 13.8081 11.2385C14.7569 11.2385 15.5543 11.8744 15.8015 12.7424C15.9328 13.2117 16.2305 13.6155 16.6191 13.8829L20.5 10.002L16.6191 6.12114L16.6797 6.03534C16.9471 5.68712 17.3256 5.42469 17.7597 5.30357C18.6277 5.05629 19.2636 4.25891 19.2636 3.31013C19.2636 2.73986 19.0314 2.22005 18.658 1.8466C18.2845 1.47314 17.7647 1.241 17.1944 1.241C16.2456 1.241 15.4483 1.87688 15.201 2.74491C15.0799 3.17892 14.8174 3.55742 14.4692 3.8249L14.3834 3.88546L10.4975 -0.000488281L6.61658 3.88041C6.8891 4.27405 7.28779 4.56676 7.75713 4.70302C8.62516 4.95031 9.26104 5.74768 9.26104 6.69646C9.26104 7.26673 9.02889 7.78654 8.65544 8.16C8.28198 8.53345 7.76218 8.7656 7.1919 8.7656C6.24312 8.7656 5.44575 8.12971 5.19846 7.26169C5.06725 6.79234 4.76949 6.38861 4.3809 6.12114L0.5 9.99699L4.3809 13.8779L4.32034 13.9637C4.05286 14.3119 3.67436 14.5743 3.24035 14.6954C2.37232 14.9427 1.73644 15.7401 1.73644 16.6889C1.73644 17.2592 1.96858 17.779 2.34204 18.1524C2.71549 18.5259 3.2353 18.758 3.80558 18.758C4.75435 18.758 5.55173 18.1221 5.79902 17.2541C5.92014 16.8201 6.18256 16.4416 6.53078 16.1741L6.61658 16.1136L10.4975 19.9945L14.3784 16.1136C14.1059 15.7199 13.7072 15.4272 13.2378 15.291C12.3698 15.0437 11.7339 14.2463 11.7339 13.2975C11.7339 12.7272 11.9661 12.2074 12.3395 11.834L12.3446 11.8441Z"
        fill="#a7a6a6" fill-opacity=".9"></path>
</svg>